# xmcd
# 
# Track frame offsets:
#     150
#     14242
#     31732
#     52202
#     72097
#     97657
#     113112
#     128145
#     143540
#     162072
#     177602
#     189652
#     201270
#     210750
# 
# Disc length: 3184
# 
# Revision: 3
# Processed by: cddbd v1.5.2PL0 Copyright (c) Steve Scherf et al.
# Submitted via: fre:ac v1.0.31
# 
DISCID=bf0c6e0e
DTITLE=綾戸智絵 Chie Ayado - To you
DYEAR=2003
DGENRE=Jazz
TTITLE0=A House Of Gold
TTITLE1=I Got A Name
TTITLE2=Imagine
TTITLE3=God Bress' The Child
TTITLE4=With A Little Help From My Friends
TTITLE5=Without You
TTITLE6=On And On
TTITLE7=The River Of No Return
TTITLE8=Never My Love
TTITLE9=Fly Me To The Moon
TTITLE10=Luchille
TTITLE11=My Dear Life
TTITLE12=On My Darling Clementine
TTITLE13=My Way
EXTD=YEAR: 2003
EXTT0=
EXTT1=
EXTT2=
EXTT3=
EXTT4=
EXTT5=
EXTT6=
EXTT7=
EXTT8=
EXTT9=
EXTT10=
EXTT11=
EXTT12=
EXTT13=
PLAYORDER=
